<svg width="79" height="113" viewBox="0 0 79 113" fill="none" xmlns="http://www.w3.org/2000/svg">
<circle cx="39.5" cy="39.5" r="39.5" fill="#C5C6D3" fill-opacity="0.2"/>
<path d="M36.375 39.1875H41.5833" stroke="#7F819D" stroke-width="1.2" stroke-linecap="round" stroke-linejoin="round"/>
<path d="M38.9792 48.875C44.4445 48.875 48.875 44.4445 48.875 38.9792C48.875 33.5138 44.4445 29.0833 38.9792 29.0833C33.5139 29.0833 29.0834 33.5138 29.0834 38.9792C29.0834 44.4445 33.5139 48.875 38.9792 48.875Z" stroke="#7F819D" stroke-width="1.2" stroke-linecap="round" stroke-linejoin="round"/>
<path d="M49.9167 49.9167L47.8334 47.8333" stroke="#7F819D" stroke-width="1.2" stroke-linecap="round" stroke-linejoin="round"/>
<path d="M13.5829 95.0909V106H12.3045L6.35991 97.4347H6.25337V106H4.93235V95.0909H6.21076L12.1767 103.678H12.2832V95.0909H13.5829ZM19.3797 106.17C18.6411 106.17 17.993 105.995 17.4355 105.643C16.8815 105.292 16.4482 104.8 16.1357 104.168C15.8268 103.536 15.6723 102.797 15.6723 101.952C15.6723 101.099 15.8268 100.355 16.1357 99.7198C16.4482 99.0842 16.8815 98.5906 17.4355 98.239C17.993 97.8874 18.6411 97.7116 19.3797 97.7116C20.1183 97.7116 20.7646 97.8874 21.3186 98.239C21.8762 98.5906 22.3094 99.0842 22.6183 99.7198C22.9308 100.355 23.0871 101.099 23.0871 101.952C23.0871 102.797 22.9308 103.536 22.6183 104.168C22.3094 104.8 21.8762 105.292 21.3186 105.643C20.7646 105.995 20.1183 106.17 19.3797 106.17ZM19.3797 105.041C19.9408 105.041 20.4024 104.897 20.7646 104.61C21.1269 104.322 21.395 103.944 21.569 103.475C21.743 103.006 21.83 102.499 21.83 101.952C21.83 101.405 21.743 100.895 21.569 100.423C21.395 99.9506 21.1269 99.5689 20.7646 99.2777C20.4024 98.9865 19.9408 98.8409 19.3797 98.8409C18.8186 98.8409 18.357 98.9865 17.9948 99.2777C17.6325 99.5689 17.3644 99.9506 17.1904 100.423C17.0164 100.895 16.9294 101.405 16.9294 101.952C16.9294 102.499 17.0164 103.006 17.1904 103.475C17.3644 103.944 17.6325 104.322 17.9948 104.61C18.357 104.897 18.8186 105.041 19.3797 105.041ZM29.2248 106V97.8182H30.4393V99.054H30.5245C30.6737 98.6491 30.9435 98.3207 31.3342 98.0685C31.7248 97.8164 32.1651 97.6903 32.6552 97.6903C32.7475 97.6903 32.8629 97.6921 33.0014 97.6957C33.1399 97.6992 33.2447 97.7045 33.3157 97.7116V98.9901C33.2731 98.9794 33.1754 98.9634 33.0227 98.9421C32.8736 98.9173 32.7156 98.9048 32.5487 98.9048C32.1509 98.9048 31.7958 98.9883 31.4833 99.1552C31.1744 99.3185 30.9293 99.5458 30.7482 99.837C30.5707 100.125 30.4819 100.453 30.4819 100.822V106H29.2248ZM37.9872 106.17C37.1989 106.17 36.5188 105.996 35.9471 105.648C35.3789 105.297 34.9403 104.807 34.6314 104.178C34.326 103.546 34.1733 102.811 34.1733 101.973C34.1733 101.135 34.326 100.396 34.6314 99.7571C34.9403 99.1143 35.37 98.6136 35.9205 98.255C36.4744 97.8928 37.1207 97.7116 37.8594 97.7116C38.2855 97.7116 38.7063 97.7827 39.1218 97.9247C39.5373 98.0668 39.9155 98.2976 40.2564 98.6172C40.5973 98.9332 40.869 99.3523 41.0714 99.8743C41.2738 100.396 41.375 101.039 41.375 101.803V102.335H35.0682V101.249H40.0966C40.0966 100.787 40.0043 100.375 39.8196 100.013C39.6385 99.6506 39.3793 99.3647 39.0419 99.1552C38.7081 98.9457 38.3139 98.8409 37.8594 98.8409C37.3587 98.8409 36.9254 98.9652 36.5597 99.2138C36.1974 99.4588 35.9187 99.7784 35.7234 100.173C35.5281 100.567 35.4304 100.989 35.4304 101.44V102.165C35.4304 102.783 35.5369 103.306 35.75 103.736C35.9666 104.162 36.2667 104.487 36.6502 104.711C37.0337 104.931 37.4794 105.041 37.9872 105.041C38.3175 105.041 38.6158 104.995 38.8821 104.903C39.152 104.807 39.3846 104.665 39.5799 104.477C39.7752 104.285 39.9261 104.047 40.0327 103.763L41.2472 104.104C41.1193 104.516 40.9045 104.878 40.6026 105.19C40.3008 105.499 39.9279 105.741 39.484 105.915C39.0401 106.085 38.5412 106.17 37.9872 106.17ZM49.0827 99.6506L47.9535 99.9702C47.8825 99.782 47.7777 99.5991 47.6392 99.4215C47.5043 99.2404 47.3196 99.0913 47.0852 98.9741C46.8509 98.8569 46.5508 98.7983 46.185 98.7983C45.6843 98.7983 45.267 98.9137 44.9332 99.1445C44.603 99.3718 44.4379 99.6612 44.4379 100.013C44.4379 100.325 44.5515 100.572 44.7788 100.753C45.006 100.934 45.3612 101.085 45.8441 101.206L47.0586 101.504C47.7901 101.682 48.3352 101.953 48.6939 102.319C49.0526 102.681 49.2319 103.148 49.2319 103.72C49.2319 104.189 49.0969 104.608 48.8271 104.977C48.5607 105.347 48.1879 105.638 47.7085 105.851C47.229 106.064 46.6715 106.17 46.0359 106.17C45.2013 106.17 44.5107 105.989 43.9638 105.627C43.4169 105.265 43.0707 104.736 42.9251 104.04L44.1183 103.741C44.2319 104.182 44.4467 104.512 44.7628 104.732C45.0824 104.952 45.4996 105.062 46.0146 105.062C46.6005 105.062 47.0657 104.938 47.4102 104.69C47.7582 104.437 47.9322 104.136 47.9322 103.784C47.9322 103.5 47.8327 103.262 47.6339 103.07C47.435 102.875 47.1296 102.729 46.7177 102.634L45.354 102.314C44.6048 102.136 44.0543 101.861 43.7028 101.488C43.3548 101.112 43.1808 100.641 43.1808 100.077C43.1808 99.6151 43.3104 99.2067 43.5696 98.8516C43.8324 98.4964 44.1893 98.2177 44.6403 98.0153C45.0948 97.8129 45.6097 97.7116 46.185 97.7116C46.9947 97.7116 47.6303 97.8892 48.092 98.2443C48.5572 98.5994 48.8874 99.0682 49.0827 99.6506ZM56.2805 102.655V97.8182H57.5376V106H56.2805V104.615H56.1952C56.0035 105.031 55.7052 105.384 55.3003 105.675C54.8955 105.963 54.3841 106.107 53.7662 106.107C53.2549 106.107 52.8003 105.995 52.4026 105.771C52.0049 105.544 51.6924 105.203 51.4651 104.748C51.2378 104.29 51.1242 103.713 51.1242 103.017V97.8182H52.3813V102.932C52.3813 103.528 52.5482 104.004 52.882 104.359C53.2194 104.714 53.6491 104.892 54.1711 104.892C54.4836 104.892 54.8014 104.812 55.1246 104.652C55.4513 104.493 55.7247 104.248 55.9449 103.917C56.1686 103.587 56.2805 103.166 56.2805 102.655ZM61.0971 95.0909V106H59.84V95.0909H61.0971ZM66.9578 97.8182V98.8835H62.7178V97.8182H66.9578ZM63.9536 95.858H65.2107V103.656C65.2107 104.011 65.2622 104.278 65.3651 104.455C65.4717 104.629 65.6066 104.746 65.77 104.807C65.9369 104.864 66.1127 104.892 66.2973 104.892C66.4358 104.892 66.5494 104.885 66.6382 104.871C66.727 104.853 66.798 104.839 66.8513 104.828L67.107 105.957C67.0218 105.989 66.9028 106.021 66.7501 106.053C66.5974 106.089 66.4039 106.107 66.1695 106.107C65.8144 106.107 65.4664 106.03 65.1254 105.877C64.7881 105.725 64.5075 105.492 64.2838 105.18C64.0637 104.867 63.9536 104.473 63.9536 103.997V95.858ZM74.4978 99.6506L73.3685 99.9702C73.2975 99.782 73.1927 99.5991 73.0542 99.4215C72.9193 99.2404 72.7346 99.0913 72.5003 98.9741C72.2659 98.8569 71.9658 98.7983 71.6001 98.7983C71.0993 98.7983 70.6821 98.9137 70.3483 99.1445C70.018 99.3718 69.8529 99.6612 69.8529 100.013C69.8529 100.325 69.9665 100.572 70.1938 100.753C70.4211 100.934 70.7762 101.085 71.2591 101.206L72.4736 101.504C73.2052 101.682 73.7503 101.953 74.1089 102.319C74.4676 102.681 74.6469 103.148 74.6469 103.72C74.6469 104.189 74.512 104.608 74.2421 104.977C73.9758 105.347 73.6029 105.638 73.1235 105.851C72.6441 106.064 72.0866 106.17 71.4509 106.17C70.6164 106.17 69.9257 105.989 69.3788 105.627C68.8319 105.265 68.4857 104.736 68.3401 104.04L69.5333 103.741C69.6469 104.182 69.8618 104.512 70.1778 104.732C70.4974 104.952 70.9147 105.062 71.4296 105.062C72.0155 105.062 72.4807 104.938 72.8252 104.69C73.1732 104.437 73.3472 104.136 73.3472 103.784C73.3472 103.5 73.2478 103.262 73.0489 103.07C72.8501 102.875 72.5447 102.729 72.1327 102.634L70.7691 102.314C70.0198 102.136 69.4694 101.861 69.1178 101.488C68.7698 101.112 68.5958 100.641 68.5958 100.077C68.5958 99.6151 68.7254 99.2067 68.9846 98.8516C69.2474 98.4964 69.6043 98.2177 70.0553 98.0153C70.5099 97.8129 71.0248 97.7116 71.6001 97.7116C72.4097 97.7116 73.0454 97.8892 73.507 98.2443C73.9722 98.5994 74.3025 99.0682 74.4978 99.6506Z" fill="#7F819D"/>
</svg>
