<svg width="81" height="81" viewBox="0 0 81 81" fill="none" xmlns="http://www.w3.org/2000/svg">
<g clip-path="url(#clip0_3133_12506)">
<g opacity="0.15">
<mask id="mask0_3133_12506" style="mask-type:luminance" maskUnits="userSpaceOnUse" x="-71" y="-120" width="349" height="233">
<path d="M277.96 -119.32H-70.04V112.109H277.96V-119.32Z" fill="white"/>
</mask>
<g mask="url(#mask0_3133_12506)">
<path d="M-84.5215 23.1752C-49.8931 13.756 -5.86881 21.1942 -4.51857 42.9947C-3.16833 64.7953 53.7227 58.2135 55.4117 75.9502C57.1006 93.6868 119.351 74.5246 129.118 115.487C59.3418 146.888 28.5878 153.618 21.4793 153.618C14.3709 153.618 -80.9672 151.373 -80.9672 151.373C-80.9672 151.373 -122.788 143.745 -122.788 139.26C-122.792 134.775 -84.5215 23.1752 -84.5215 23.1752Z" fill="#FFAA00"/>
</g>
</g>
<path d="M82.2312 30.3539C91.0715 21.5353 91.0715 7.23769 82.2312 -1.58085C73.3909 -10.3994 59.058 -10.3994 50.2177 -1.58084C41.3774 7.23769 41.3774 21.5354 50.2177 30.3539C59.058 39.1724 73.3909 39.1724 82.2312 30.3539Z" fill="#FFAA00"/>
<path d="M37.6378 12.5465C37.6378 13.5181 36.8486 14.3054 35.8746 14.3054C34.9006 14.3054 34.1113 13.5181 34.1113 12.5465C34.1113 11.5749 34.9006 10.7876 35.8746 10.7876C36.8486 10.7876 37.6378 11.5749 37.6378 12.5465Z" fill="white"/>
<path d="M19.7266 28.3888C21.5808 28.3888 23.084 26.8894 23.084 25.0397C23.084 23.19 21.5808 21.6906 19.7266 21.6906C17.8724 21.6906 16.3692 23.19 16.3692 25.0397C16.3692 26.8894 17.8724 28.3888 19.7266 28.3888Z" stroke="white" stroke-width="1.4173" stroke-miterlimit="10"/>
<path d="M84.099 51.5203C84.099 52.4919 83.3098 53.2792 82.3358 53.2792C81.3618 53.2792 80.5725 52.4919 80.5725 51.5203C80.5725 50.5487 81.3618 49.7614 82.3358 49.7614C83.3098 49.7645 84.099 50.5487 84.099 51.5203Z" fill="white"/>
<path d="M6.90134 38.7452C7.95366 38.7077 9.27218 38.4703 9.529 37.4518C9.84531 36.1959 8.27624 35.4118 7.1425 34.7807C4.7059 33.4217 3.30281 30.763 1.1105 29.0385C-2.5726 26.1423 -8.45427 26.5672 -11.677 29.9632C-12.2595 30.5755 -12.7919 31.291 -13.578 31.6096C-14.5458 32.0002 -15.025 31.4722 -15.8674 31.7846C-17.1766 32.2688 -16.879 33.681 -17.9783 34.3652C-19.6601 35.4118 -21.5236 32.8312 -24.026 33.6622C-25.213 34.0559 -24.9154 34.6776 -27.3865 36.374C-29.0871 37.5424 -30.058 37.8142 -30.0016 38.236C-29.9014 39.0077 -26.4845 39.1639 -25.5951 39.2014C-12.8546 39.7325 -11.3137 39.1889 -4.55195 39.0545C-0.737314 38.9795 3.08358 38.8827 6.90134 38.7452Z" fill="white"/>
<path d="M65.643 48.415V59.7995" stroke="#FFAA00" stroke-width="1.4173" stroke-miterlimit="10"/>
<path d="M81.4682 41.9761L89.3919 55.6631" stroke="#FFAA00" stroke-width="1.4173" stroke-miterlimit="10"/>
<path d="M22.0597 14.6334H30.0867" stroke="#FFAA00" stroke-width="1.4173" stroke-miterlimit="10"/>
<path d="M24.6121 38.2643L38.1356 30.4758" stroke="#FFAA00" stroke-width="1.4173" stroke-miterlimit="10"/>
<path d="M43.7574 52.4451L47.9572 45.1908" stroke="#FFAA00" stroke-width="1.4173" stroke-miterlimit="10"/>
<path d="M41.2334 8.25392L28.3332 4.80797" stroke="#FFC300" stroke-width="1.4173" stroke-miterlimit="10"/>
<path d="M40.6944 22.1718L28.8715 25.3304" stroke="#FFC300" stroke-width="1.4173" stroke-miterlimit="10"/>
<path d="M46.4978 35.587L40.328 41.7416" stroke="#FFC300" stroke-width="1.4173" stroke-miterlimit="10"/>
<path d="M59.7175 42.2383L57.0115 52.3075" stroke="#FFC300" stroke-width="1.4173" stroke-miterlimit="10"/>
<path d="M74.0051 41.2417L77.2466 53.3041" stroke="#FFC300" stroke-width="1.4173" stroke-miterlimit="10"/>
</g>
<defs>
<clipPath id="clip0_3133_12506">
<rect width="174" height="162" fill="white" transform="translate(-19 -61)"/>
</clipPath>
</defs>
</svg>
